<svg xmlns="http://www.w3.org/2000/svg" width="242" height="128" viewBox="0 0 242 128">
    <path fill="#0700FF" fill-rule="nonzero" d="M18.184 100.535c.447.023.892.046 1.336.067l-.049 1a497.81 497.81 0 0 1-1.997-.103l.052-.998.27.014-.161-.174C11.553 93.834 8.5 88.833 8.5 85.257c0-5.385 4.25-9.757 9.5-9.757s9.5 4.372 9.5 9.757c0 3.576-3.053 8.577-9.135 15.084l-.18.194zm206.02-.02l.268-.014.05.998-.589.03-.045-.917-.253-.27c-6.082-6.508-9.135-11.51-9.135-15.085 0-5.385 4.25-9.757 9.5-9.757s9.5 4.372 9.5 9.757c0 3.576-3.053 8.577-9.135 15.084l-.161.173zM26.5 85.256c0-4.84-3.809-8.757-8.5-8.757s-8.5 3.918-8.5 8.757c0 3.174 2.826 7.869 8.5 14.009 5.674-6.14 8.5-10.835 8.5-14.009zm-8 4.243c-2.225 0-4-2.028-4-4.5s1.775-4.5 4-4.5 4 2.028 4 4.5-1.775 4.5-4 4.5zm0-1c1.64 0 3-1.553 3-3.5s-1.36-3.5-3-3.5-3 1.553-3 3.5 1.36 3.5 3 3.5zm214-3.243c0-4.84-3.809-8.757-8.5-8.757s-8.5 3.918-8.5 8.757c0 3.174 2.826 7.869 8.5 14.009 5.674-6.14 8.5-10.835 8.5-14.009zm-8 4.243c-2.225 0-4-2.028-4-4.5s1.775-4.5 4-4.5 4 2.028 4 4.5-1.775 4.5-4 4.5zm0-1c1.64 0 3-1.553 3-3.5s-1.36-3.5-3-3.5-3 1.553-3 3.5 1.36 3.5 3 3.5zM21.464 101.694l.044-.999c.667.03 1.33.059 1.992.086l-.04.999c-.664-.027-1.329-.056-1.996-.086zm4.006.163l.037-1c.664.025 1.326.048 1.986.069l-.032 1-1.99-.069zm4.006.128l.028-1c.67.019 1.337.036 2.002.051l-.023 1c-.666-.016-1.335-.032-2.007-.05zm4 .092l.019-1c.666.012 1.329.023 1.99.032l-.014 1c-.662-.01-1.327-.02-1.994-.032zm4.016.054l.009-1c.668.006 1.334.01 1.996.012l-.003 1a400.05 400.05 0 0 1-2.002-.012zm4.001.014l-.001-1c.67-.001 1.335-.004 1.999-.008l.007 1c-.665.004-1.334.007-2.005.008zm4.006-.028l-.013-1c.67-.008 1.335-.018 1.997-.03l.018 1c-.664.012-1.332.022-2.002.03zm4.004-.07l-.024-1c.667-.016 1.33-.033 1.99-.053l.029 1c-.662.02-1.327.037-1.995.052zm3.996-.117l-.035-1c.67-.023 1.335-.049 1.998-.076l.041.999c-.664.027-1.332.053-2.004.077zm4.005-.166l-.048-.999c.67-.032 1.337-.066 2-.102l.054.999c-.665.036-1.334.07-2.006.102zm4.005-.217l-.06-.998c.668-.041 1.333-.084 1.994-.129l.068.998c-.663.045-1.33.088-2.002.129zm3.998-.271l-.074-.997c.665-.05 1.326-.102 1.983-.156l.082.996c-.66.055-1.323.107-1.99.157zm4.003-.33l-.09-.996c.665-.06 1.326-.122 1.983-.186l.097.996c-.66.064-1.323.126-1.99.186zm3.977-.389l-.105-.994c.668-.07 1.331-.144 1.99-.22l.114.994c-.662.076-1.328.15-1.999.22zm3.982-.455l-.122-.992c.662-.082 1.32-.166 1.972-.252l.131.992c-.655.086-1.316.17-1.98.252zm3.975-.525l-.14-.99c.663-.094 1.322-.19 1.975-.29l.15.99c-.657.099-1.318.196-1.985.29zm3.973-.601l-.16-.987c.66-.107 1.316-.216 1.967-.328l.17.985c-.654.113-1.313.223-1.977.33zm3.955-.681l-.18-.984c.659-.12 1.312-.244 1.96-.37l.19.981c-.65.127-1.307.251-1.97.373zm3.94-.769l-.202-.98c.656-.135 1.307-.274 1.951-.416l.215.977c-.648.143-1.303.282-1.963.42zm3.924-.863l-.227-.974c.653-.152 1.3-.308 1.94-.466l.24.97c-.644.16-1.295.316-1.953.47zm3.902-.966l-.253-.968c.647-.17 1.288-.343 1.922-.52l.268.964c-.638.178-1.284.352-1.937.524zm3.86-1.075l-.284-.959c.644-.19 1.28-.383 1.907-.58l.299.955c-.633.198-1.274.393-1.923.584zm3.819-1.195l-.315-.95c.638-.21 1.267-.426 1.888-.644l.332.943c-.626.22-1.262.438-1.905.651zm3.802-1.34l-.35-.936c.629-.235 1.249-.474 1.86-.717l.369.93c-.617.245-1.243.486-1.88.724zm3.736-1.484l-.39-.921c.617-.261 1.223-.526 1.82-.794l.41.912c-.603.271-1.217.539-1.84.803zm3.665-1.652l-.433-.901c.605-.29 1.198-.585 1.78-.884l.457.89c-.59.302-1.191.6-1.804.895zm3.59-1.844l-.482-.876c.587-.324 1.162-.651 1.724-.983l.508.861c-.57.337-1.154.67-1.75.998zm3.474-2.054l-.537-.844c.567-.36 1.118-.725 1.655-1.094l.566.824c-.546.376-1.108.747-1.684 1.114zm3.335-2.297l-.598-.8c.537-.402 1.057-.807 1.56-1.217l.631.775c-.514.419-1.045.833-1.593 1.242zm3.137-2.56l-.667-.745c.499-.446.978-.897 1.438-1.353l.703.71c-.471.468-.963.93-1.474 1.389zm2.886-2.864l-.743-.67c.448-.496.873-.996 1.275-1.5l.782.624a33.39 33.39 0 0 1-1.314 1.546zm2.537-3.188l-.822-.57c.38-.547.734-1.099 1.061-1.653l.861.508c-.34.576-.706 1.148-1.1 1.715zm2.073-3.525l-.899-.437c.29-.596.55-1.194.78-1.794l.933.358c-.24.627-.511 1.252-.814 1.873zm1.462-3.835l-.963-.268c.176-.633.32-1.268.43-1.901l.985.171a20.578 20.578 0 0 1-.452 1.998zm.698-4.056l-.997-.066c.043-.651.05-1.3.024-1.945l.999-.042c.028.681.02 1.366-.026 2.053zm-.174-4.106l-.988.152a17.736 17.736 0 0 0-.4-1.903l.966-.259c.177.663.318 1.333.422 2.01zm-1.054-3.947l-.933.36a18.582 18.582 0 0 0-.797-1.776l.89-.457c.314.613.594 1.237.84 1.873zm-1.878-3.664l-.839.544a20.253 20.253 0 0 0-1.14-1.584l.782-.622c.429.538.828 1.093 1.197 1.662zm-2.517-3.176l-.724.69c-.446-.467-.917-.92-1.412-1.354l.66-.75c.517.453 1.009.925 1.476 1.414zm-3.083-2.711l-.594.803a24.757 24.757 0 0 0-1.622-1.102l.53-.848c.582.363 1.144.745 1.686 1.147zm-3.468-2.166l-.463.886c-.576-.301-1.167-.583-1.773-.846l.398-.918c.628.273 1.241.565 1.838.878zm-3.754-1.63l-.333.943a29.558 29.558 0 0 0-1.875-.592l.269-.963c.658.184 1.305.388 1.94.612zm-3.93-1.1l-.207.978a31.944 31.944 0 0 0-1.939-.347l.146-.989c.675.1 1.342.219 2 .358zm-4.039-.596l-.086.996a34.4 34.4 0 0 0-1.968-.113l.029-1a35.4 35.4 0 0 1 2.025.117zm-4.064-.119l.027 1a34.2 34.2 0 0 0-1.966.11l-.085-.997a35.2 35.2 0 0 1 2.024-.113zm-4.047.346l.144.99c-.655.095-1.3.21-1.936.344l-.207-.978a32.245 32.245 0 0 1 1.999-.356zm-3.996.847l.272.963c-.638.18-1.263.38-1.875.598l-.337-.94c.633-.228 1.28-.435 1.94-.62zm-3.825 1.374l.405.914c-.604.267-1.19.554-1.76.86l-.474-.88a26.545 26.545 0 0 1 1.829-.894zm-3.617 1.953l.545.839c-.553.358-1.084.737-1.593 1.133l-.615-.788c.532-.415 1.087-.81 1.663-1.184zm-3.198 2.495l.683.73c-.48.45-.935.916-1.36 1.4l-.75-.662c.447-.508.923-.998 1.427-1.468zm-2.72 3.092l.814.581c-.38.533-.728 1.08-1.045 1.642l-.871-.49c.334-.593.702-1.171 1.103-1.733zm-2.029 3.62l.922.388c-.253.599-.47 1.209-.651 1.829l-.96-.28c.192-.658.422-1.304.69-1.937zm-1.162 4.005l.987.164a16.776 16.776 0 0 0-.207 1.932l-.999-.048c.034-.69.107-1.373.22-2.048zm-.2 4.126l.997-.065c.042.64.12 1.285.234 1.931l-.985.173a18.978 18.978 0 0 1-.246-2.039zm.676 3.938l.963-.268c.172.619.376 1.237.613 1.855l-.934.358a21.522 21.522 0 0 1-.642-1.945zm1.47 3.843l.898-.439c.282.577.592 1.153.931 1.725l-.86.51a25.547 25.547 0 0 1-.97-1.796zm2.088 3.534l.82-.571c.368.528.761 1.054 1.178 1.576l-.781.624c-.43-.539-.837-1.082-1.217-1.629zm2.551 3.198l.742-.67c.434.48.888.956 1.363 1.428l-.704.71a37.426 37.426 0 0 1-1.4-1.468zm2.897 2.88l.668-.744c.482.433.982.862 1.5 1.287l-.634.773a45.026 45.026 0 0 1-1.534-1.316zm3.148 2.584l.601-.8c.52.392 1.055.779 1.605 1.162l-.57.821c-.561-.39-1.107-.785-1.636-1.183zm3.337 2.322l.542-.84c.547.352 1.109.701 1.684 1.046l-.515.858a62.958 62.958 0 0 1-1.711-1.064zm3.455 2.074l.488-.872c.57.32 1.153.635 1.747.947l-.465.885a73.037 73.037 0 0 1-1.77-.96zm3.572 1.876l.442-.898c.588.29 1.186.575 1.795.857l-.42.908a83.832 83.832 0 0 1-1.817-.867zm3.633 1.682l.4-.917c.6.262 1.212.521 1.833.776l-.38.925a95.178 95.178 0 0 1-1.853-.784zm3.745 1.54l.362-.933c.612.237 1.234.472 1.864.702l-.344.94c-.636-.234-1.263-.47-1.882-.71zm3.746 1.372l.328-.944c.62.215 1.249.427 1.885.635l-.311.95c-.642-.21-1.276-.424-1.902-.64zm3.825 1.255l.296-.955c.628.195 1.264.387 1.907.575l-.282.96c-.648-.19-1.288-.384-1.921-.58zm3.82 1.123l.268-.964c.635.177 1.276.351 1.925.522l-.255.967c-.653-.172-1.3-.347-1.938-.525zm3.796 1.002l.243-.97c.64.16 1.285.318 1.937.472l-.23.973c-.657-.155-1.306-.314-1.95-.475zm3.872.919l.22-.976c.644.145 1.294.287 1.95.426l-.208.978c-.66-.14-1.314-.283-1.962-.428zm3.935.836l.197-.98c.647.13 1.3.257 1.957.381l-.187.983c-.66-.126-1.316-.254-1.967-.384zm3.95.75l.177-.985c.65.117 1.306.231 1.967.343l-.167.986c-.664-.112-1.323-.227-1.977-.344zm3.949.668l.157-.988c.652.104 1.309.206 1.97.305l-.148.989c-.665-.1-1.325-.202-1.98-.306zm3.967.595l.14-.99c.655.092 1.315.182 1.979.27l-.131.992a235.44 235.44 0 0 1-1.988-.272zm3.975.526l.123-.992c.656.081 1.317.16 1.981.238l-.115.993c-.667-.077-1.33-.157-1.99-.239zm3.99.463l.107-.994c.658.07 1.32.14 1.986.207l-.1.995c-.669-.067-1.333-.137-1.994-.208zm3.994.402l.093-.996c.658.061 1.32.12 1.987.178l-.086.996c-.668-.057-1.333-.117-1.994-.178zm4.011.345l.079-.997c.66.052 1.323.102 1.99.15l-.072.998c-.67-.048-1.335-.099-1.997-.151zm3.997.29l.066-.998c.66.043 1.324.085 1.992.125l-.06.998c-.67-.04-1.335-.082-1.998-.125zm3.996.239l.053-.999c.662.035 1.327.07 1.996.101l-.048.999c-.67-.032-1.337-.066-2.001-.101zm4.01.19l.042-.998c.662.027 1.327.053 1.995.077l-.036 1c-.67-.024-1.337-.05-2-.078zm4.018.146l.03-1c.664.021 1.33.04 1.998.057l-.025 1c-.67-.018-1.338-.036-2.003-.057zm3.996.102l.02-1c.663.013 1.328.025 1.996.035l-.015 1c-.67-.01-1.337-.022-2.001-.035zm4.015.06l.01-1c.663.006 1.329.011 1.997.015l-.005 1a411.01 411.01 0 0 1-2.002-.015zm4.006.02v-1c.664 0 1.33 0 1.998-.004l.005 1c-.67.003-1.338.005-2.003.004zm4.015-.017l-.009-1c.664-.006 1.33-.013 1.998-.022l.014 1c-.67.009-1.338.016-2.003.022zm3.995-.053l-.018-1c.663-.012 1.33-.025 1.997-.04l.022 1c-.67.015-1.337.028-2.001.04zm4.022-.088l-.026-1c.663-.017 1.329-.036 1.997-.056l.03 1c-.67.02-1.336.038-2.001.056zm3.992-.121l-.035-1c.663-.022 1.329-.046 1.997-.072l.038 1c-.67.025-1.336.05-2 .072zm4.012-.153l-.043-1c.664-.027 1.329-.057 1.997-.087l.046.999c-.67.03-1.336.06-2 .088z"/>
</svg>
