<svg xmlns="http://www.w3.org/2000/svg" width="182" height="26" viewBox="0 0 182 26">
    <g fill="none" fill-rule="evenodd">
        <g stroke="#0700FF">
            <path d="M167 24.119c8.757 3.104 12.016-2.69 12-6.608 0-2.991-2.422-5.163-3.622-8.474C173.795 4.671 170.696 1 167 1c-3.457 0-6.252 1.916-8.314 7.6-1.29 3.559-3.686 5.676-3.686 8.911.037 3.07 2.15 9.689 12 6.608z"/>
            <path d="M156 14.904c.932-.685 2.503 1.096 4.6 1.096 2.097 0 3.793-3.274 3.793-7.854S166.155 2 167.03 2c.876 0 2.582 1.566 2.582 6.146S169.829 16 173.147 16c3.317 0 3.181-1.757 4.853-1.096M167 22v2M162 19l-10.5-3.5M161 20l-7.5 2M173 20l6.5 2.5M172 19l9.5-3.5M165 20l1 1M168 21l1-1M160 4.022c-1.1-.09-2.6-.064-4 3.287 1-.18 1.763.051 2.288.691.312-1.152.883-2.478 1.712-3.978zM174 4.059c1.058-.16 2.504-.228 4 3.095-.972-.12-1.698.162-2.177.846-.351-1.153-.959-2.466-1.823-3.941z"/>
            <path d="M162.42 10c.77 0 .981 2-.685 2-1.667 0-.084-2 .685-2zM171.58 10c-.77 0-.981 2 .685 2 1.667 0 .084-2-.685-2zM166 25.493c.345-.236.685-.567 1.02-.993.419.426.746.757.98.993-.562 0-1.562.015-2 0z"/>
        </g>
        <text font-family="Roboto-Regular, Roboto" font-size="16" transform="translate(-1 1)">
            <tspan x="0" y="18" fill="#000" fill-opacity=".9">PROJECT</tspan> <tspan x="68.828" y="18" fill="#0700FF" font-family="Roboto-Bold, Roboto" font-weight="bold">HAMSTER</tspan>
        </text>
    </g>
</svg>
