<svg xmlns="http://www.w3.org/2000/svg" width="80" height="80" viewBox="0 0 80 80">
    <g fill="none" fill-rule="evenodd">
        <path fill="#D8D8D8" fill-opacity="0" d="M0 0h80v80H0z"/>
        <g stroke="#979797">
            <path d="M12.297 17h55.406a4.841 4.841 0 0 1 4.842 4.841v38.485H7.455V21.84A4.841 4.841 0 0 1 12.297 17zM1.538 60.326h76.924c.297 0 .538.24.538.538v.799C79 62.4 78.401 63 77.663 63H2.337A1.337 1.337 0 0 1 1 61.663v-.8c0-.297.24-.537.538-.537z"/>
            <path d="M34.89 60.326h10.22c0 .886-.718 1.604-1.604 1.604h-7.012a1.605 1.605 0 0 1-1.604-1.604zM7.455 58.453h65.09"/>
        </g>
    </g>
</svg>
