<svg xmlns="http://www.w3.org/2000/svg" width="80" height="80" viewBox="0 0 80 80">
    <path fill="#0700FF" fill-rule="evenodd" d="M40.363 65.344l-.363.383-.363-.383C26.887 51.88 20.5 41.556 20.5 34.286 20.5 23.36 29.229 14.5 40 14.5s19.5 8.86 19.5 19.786c0 7.27-6.387 17.594-19.137 31.058zM58.5 34.286C58.5 23.909 50.216 15.5 40 15.5s-18.5 8.409-18.5 18.786c0 6.864 6.159 16.887 18.5 29.986 12.341-13.1 18.5-23.122 18.5-29.986zm-18 8.214c-4.426 0-8-3.813-8-8.5 0-4.687 3.574-8.5 8-8.5s8 3.813 8 8.5c0 4.687-3.574 8.5-8 8.5zm0-1c3.859 0 7-3.35 7-7.5s-3.141-7.5-7-7.5-7 3.35-7 7.5 3.141 7.5 7 7.5z"/>
</svg>
